<svg width="24" height="24" viewBox="0 0 24 24" fill="none" xmlns="http://www.w3.org/2000/svg">
<path d="M11.3486 23C11.0624 22.999 10.7799 22.9357 10.5206 22.8145C10.097 22.6255 9.75678 22.2882 9.5638 21.8658C9.37083 21.4434 9.33836 20.9649 9.47248 20.5203L10.8359 16H7.62344C7.21415 16.0005 6.81044 15.9049 6.44467 15.721C6.07889 15.537 5.76121 15.2698 5.5171 14.9407C5.27298 14.6116 5.10922 14.2298 5.03893 13.8258C4.96864 13.4219 4.99378 13.0071 5.11234 12.6146L7.75358 3.86466C7.91457 3.32346 8.24644 2.84916 8.69937 2.51296C9.15229 2.17675 9.70185 1.99678 10.2655 2.00004H13.4911C13.8577 2.00035 14.2188 2.08958 14.5435 2.2601C14.8683 2.43062 15.1469 2.67737 15.3558 2.97926C15.5646 3.28114 15.6973 3.62919 15.7427 3.99365C15.788 4.35812 15.7446 4.72816 15.6161 5.07216L14.1462 9.00003H16.3795C16.8556 8.99999 17.3227 9.12989 17.7306 9.37576C18.1385 9.62163 18.4719 9.97419 18.6948 10.3956C18.9178 10.8169 19.022 11.2912 18.9961 11.7674C18.9703 12.2437 18.8155 12.7038 18.5482 13.0985L12.9583 22.111C12.7855 22.3821 12.5476 22.6055 12.2664 22.7608C11.9852 22.9161 11.6697 22.9984 11.3486 23ZM10.2655 3.75004C10.078 3.74986 9.89533 3.81017 9.74463 3.92206C9.59394 4.03394 9.4832 4.19146 9.42881 4.37129L6.78757 13.1213C6.74802 13.252 6.73958 13.3902 6.76293 13.5248C6.78627 13.6594 6.84074 13.7866 6.92199 13.8964C7.00323 14.0061 7.10899 14.0952 7.2308 14.1566C7.35261 14.218 7.48707 14.25 7.62344 14.25H12.0124C12.1488 14.25 12.2832 14.282 12.405 14.3434C12.5268 14.4048 12.6326 14.494 12.7138 14.6037C12.7951 14.7134 12.8496 14.8406 12.8729 14.9752C12.8962 15.1098 12.8878 15.248 12.8483 15.3788L11.1477 21.0155C11.1398 21.0362 11.1364 21.0584 11.1375 21.0806C11.1386 21.1027 11.1443 21.1244 11.1543 21.1442C11.1642 21.164 11.1782 21.1816 11.1952 21.1957C11.2123 21.2099 11.2321 21.2203 11.2534 21.2264C11.2727 21.2388 11.2944 21.247 11.3171 21.2505C11.3397 21.254 11.3629 21.2527 11.385 21.2466C11.4071 21.2406 11.4278 21.23 11.4456 21.2155C11.4634 21.201 11.4779 21.183 11.4883 21.1625L17.0783 12.15C17.176 12.0172 17.2343 11.8594 17.2463 11.6948C17.2584 11.5302 17.2237 11.3656 17.1464 11.2199C17.0747 11.078 16.965 10.9589 16.8296 10.8759C16.6941 10.7929 16.5383 10.7493 16.3795 10.75H12.8858C12.7447 10.7501 12.6056 10.7159 12.4805 10.6504C12.3554 10.5848 12.248 10.4899 12.1676 10.3737C12.0871 10.2575 12.036 10.1235 12.0185 9.98314C12.0011 9.84281 12.0179 9.70033 12.0674 9.5679L13.9802 4.45791C14.0096 4.37869 14.0195 4.29353 14.009 4.20966C13.9985 4.1258 13.9679 4.04572 13.9199 3.97623C13.8719 3.90673 13.8078 3.84988 13.7332 3.8105C13.6585 3.77112 13.5755 3.75038 13.4911 3.75004H10.2655Z" fill="#8C9598"/>
</svg>
