<svg width="24" height="24" viewBox="0 0 24 24" fill="none" xmlns="http://www.w3.org/2000/svg">
<path d="M18.7876 21.9972C18.5017 21.9964 18.2189 21.9376 17.9553 21.8242C17.6918 21.7107 17.4528 21.5449 17.2522 21.3363L12.5 16.4968L7.74778 21.3395C7.44258 21.6567 7.05116 21.8723 6.62457 21.9583C6.19797 22.0443 5.75598 21.9966 5.35622 21.8215C4.95248 21.6552 4.6071 21.368 4.36517 20.9974C4.12324 20.6269 3.99601 20.1902 4.0001 19.7445V6.95776C4.0001 5.9081 4.40715 4.90143 5.13171 4.1592C5.85628 3.41698 6.839 3 7.86369 3L17.1363 3C17.6437 3 18.1461 3.10237 18.6148 3.30127C19.0836 3.50016 19.5095 3.79169 19.8683 4.1592C20.227 4.52671 20.5116 4.96301 20.7058 5.44319C20.9 5.92337 20.9999 6.43802 20.9999 6.95776V19.7445C21.0042 20.1899 20.8774 20.6263 20.6361 20.9968C20.3947 21.3673 20.05 21.6547 19.6469 21.8215C19.3747 21.9381 19.0826 21.9979 18.7876 21.9972ZM7.86369 4.5831C7.24887 4.5831 6.65924 4.83329 6.2245 5.27862C5.78976 5.72396 5.54553 6.32796 5.54553 6.95776V19.7445C5.54525 19.8764 5.58314 20.0054 5.65441 20.1153C5.72568 20.2251 5.82713 20.3109 5.94595 20.3617C6.06477 20.4125 6.19562 20.4261 6.32199 20.4008C6.44836 20.3755 6.56456 20.3124 6.65593 20.2194L11.9591 14.8202C12.1039 14.6728 12.2997 14.5901 12.5039 14.5901C12.708 14.5901 12.9038 14.6728 13.0486 14.8202L18.3456 20.2178C18.437 20.3108 18.5532 20.3739 18.6795 20.3992C18.8059 20.4245 18.9368 20.4109 19.0556 20.3601C19.1744 20.3093 19.2759 20.2235 19.3471 20.1137C19.4184 20.0038 19.4563 19.8748 19.456 19.7429V6.95776C19.456 6.32796 19.2118 5.72396 18.777 5.27862C18.3423 4.83329 17.7527 4.5831 17.1378 4.5831H7.86369Z" fill="#8C9598"/>
</svg>
