<svg width="21" height="20" viewBox="0 0 21 20" fill="none" xmlns="http://www.w3.org/2000/svg">
    <path
        d="M16.7333 0H5.06666C2.76916 0 0.899994 1.86917 0.899994 4.16667V10.8333C0.899994 13.1308 2.76916 15 5.06666 15H16.7333C19.0308 15 20.9 13.1308 20.9 10.8333V4.16667C20.9 1.86917 19.0308 0 16.7333 0ZM19.2333 10.8333C19.2333 12.2117 18.1117 13.3333 16.7333 13.3333H5.06666C3.68833 13.3333 2.56666 12.2117 2.56666 10.8333V4.16667C2.56666 2.78833 3.68833 1.66667 5.06666 1.66667H16.7333C18.1117 1.66667 19.2333 2.78833 19.2333 4.16667V10.8333ZM9.23333 18.3333C9.23333 19.2542 8.48749 20 7.56666 20C6.64583 20 5.89999 19.2542 5.89999 18.3333C5.89999 17.4125 6.64583 16.6667 7.56666 16.6667C8.48749 16.6667 9.23333 17.4125 9.23333 18.3333ZM13.6742 5.84083L10.3433 3.99C9.13999 3.2675 7.47666 4.24583 7.52333 5.64917V9.35C7.47583 10.7533 9.13999 11.7308 10.3433 11.0092L13.675 9.15833C14.9575 8.49583 14.9567 6.5025 13.6742 5.84083ZM12.8642 7.70167L9.53333 9.5525C9.43749 9.60583 9.35583 9.58 9.30416 9.55C9.25249 9.51917 9.18999 9.46 9.18999 9.35083V5.64917C9.18999 5.54 9.25166 5.48 9.30416 5.45C9.33416 5.4325 9.37416 5.41583 9.42166 5.41583C9.45583 5.41583 9.49333 5.42417 9.53416 5.44667L12.865 7.2975C12.9642 7.3525 12.985 7.4375 12.985 7.5C12.985 7.5625 12.9642 7.6475 12.8658 7.7025L12.8642 7.70167ZM20.9 18.3325C20.9 18.7933 20.5267 19.1658 20.0667 19.1658H11.7333C11.2733 19.1658 10.9 18.7933 10.9 18.3325C10.9 17.8717 11.2733 17.4992 11.7333 17.4992H20.0667C20.5267 17.4992 20.9 17.8717 20.9 18.3325ZM4.23333 18.3325C4.23333 18.7933 3.85999 19.1658 3.39999 19.1658H1.73333C1.27333 19.1658 0.899994 18.7933 0.899994 18.3325C0.899994 17.8717 1.27333 17.4992 1.73333 17.4992H3.39999C3.85999 17.4992 4.23333 17.8717 4.23333 18.3325Z"
        fill="#8C9598" />
</svg>
