<svg width="24" height="24" viewBox="0 0 24 24" fill="none" xmlns="http://www.w3.org/2000/svg">
<path d="M21 20.25C21 20.664 20.664 21 20.25 21H5.25C4.0095 21 3 19.9905 3 18.75V3.75C3 3.336 3.336 3 3.75 3C4.164 3 4.5 3.336 4.5 3.75V18.75C4.5 19.1632 4.83675 19.5 5.25 19.5H20.25C20.664 19.5 21 19.836 21 20.25ZM18.75 6.75H15.75C15.336 6.75 15 7.086 15 7.5C15 7.914 15.336 8.25 15.75 8.25H18.4222L14.7795 11.7802C14.4967 12.0638 14.0025 12.0638 13.7198 11.7802C13.689 11.7502 12.7905 11.1105 12.7905 11.1105C11.937 10.3057 10.4827 10.3357 9.669 11.1488L6.2295 14.4593C5.931 14.7465 5.922 15.2213 6.20925 15.5198C6.357 15.6728 6.55275 15.75 6.75 15.75C6.9375 15.75 7.125 15.6803 7.26975 15.5408L10.7198 12.2198C11.0025 11.9362 11.4967 11.9362 11.7795 12.2198C11.8103 12.2498 12.7087 12.8895 12.7087 12.8895C13.563 13.695 15.0157 13.6665 15.8317 12.849L19.4993 9.294V11.9992C19.4993 12.4132 19.8353 12.7492 20.2493 12.7492C20.6632 12.7492 20.9993 12.4132 20.9993 11.9992V8.99925C20.9993 7.75875 19.9897 6.74925 18.7493 6.74925L18.75 6.75Z" fill="#8C9598"/>
</svg>
