<svg width="29" height="28" viewBox="0 0 29 28" fill="none" xmlns="http://www.w3.org/2000/svg">
<path d="M20.5249 7.49942H19.5615C19.1547 5.50562 17.3872 4 15.2749 4H8.2749C5.86253 4 3.8999 5.9623 3.8999 8.37427V19.6196C3.8999 20.3143 4.28053 20.9494 4.89215 21.2766C5.1704 21.4262 5.47578 21.4997 5.78028 21.4997C6.14428 21.4997 6.5074 21.3939 6.82153 21.1848L9.40278 19.4639C10.0074 21.1568 11.6262 22.3719 13.5249 22.3719H18.5098L21.9783 24.6842C22.2933 24.8941 22.6555 25 23.0195 25C23.324 25 23.6285 24.9256 23.9077 24.776C24.5202 24.4488 24.8999 23.8137 24.8999 23.1191V11.8737C24.8999 9.46171 22.9373 7.49942 20.5249 7.49942ZM5.85115 19.729C5.83453 19.7395 5.78553 19.771 5.71815 19.7351C5.64903 19.6984 5.64903 19.6398 5.64903 19.6205V8.37427C5.64903 6.92726 6.82678 5.74971 8.27403 5.74971H15.274C16.7213 5.74971 17.899 6.92726 17.899 8.37427V14.4983C17.899 15.9453 16.7213 17.1228 15.274 17.1228H10.024C9.7379 17.1228 9.55065 17.2619 9.52965 17.2759L5.85115 19.729ZM23.1499 23.1199C23.1499 23.1383 23.1499 23.1978 23.0808 23.2345C23.0117 23.2704 22.9644 23.2389 22.9487 23.2284L19.2605 20.7692C19.117 20.6738 18.9482 20.6222 18.7749 20.6222H13.5249C12.3839 20.6222 11.4118 19.8909 11.0504 18.8725H15.2749C17.6873 18.8725 19.6499 16.9102 19.6499 14.4983V9.24913H20.5249C21.9722 9.24913 23.1499 10.4267 23.1499 11.8737V23.1199Z" fill="#8C9598"/>
</svg>
