<svg width="20" height="20" viewBox="0 0 20 20" fill="none" xmlns="http://www.w3.org/2000/svg">
<g clip-path="url(#clip0_385_12505)">
<g filter="url(#filter0_d_385_12505)">
<path d="M15.3333 2H4.66667C3.95942 2 3.28115 2.28096 2.78105 2.78106C2.28095 3.28116 2 3.95945 2 4.6667L2 12.6668C2 13.3741 2.28095 14.0524 2.78105 14.5525C3.28115 15.0526 3.95942 15.3335 4.66667 15.3335H6.6L9.56733 17.8422C9.68771 17.9441 9.8403 18 9.998 18C10.1557 18 10.3083 17.9441 10.4287 17.8422L13.4 15.3335H15.3333C16.0406 15.3335 16.7189 15.0526 17.219 14.5525C17.719 14.0524 18 13.3741 18 12.6668V4.6667C18 3.95945 17.719 3.28116 17.219 2.78106C16.7189 2.28096 16.0406 2 15.3333 2ZM6.66667 5.33338H10C10.1768 5.33338 10.3464 5.40362 10.4714 5.52865C10.5964 5.65367 10.6667 5.82324 10.6667 6.00006C10.6667 6.17687 10.5964 6.34644 10.4714 6.47147C10.3464 6.59649 10.1768 6.66673 10 6.66673H6.66667C6.48986 6.66673 6.32029 6.59649 6.19526 6.47147C6.07024 6.34644 6 6.17687 6 6.00006C6 5.82324 6.07024 5.65367 6.19526 5.52865C6.32029 5.40362 6.48986 5.33338 6.66667 5.33338ZM13.3333 12.0001H6.66667C6.48986 12.0001 6.32029 11.9299 6.19526 11.8049C6.07024 11.6798 6 11.5103 6 11.3335C6 11.1567 6.07024 10.9871 6.19526 10.8621C6.32029 10.737 6.48986 10.6668 6.66667 10.6668H13.3333C13.5101 10.6668 13.6797 10.737 13.8047 10.8621C13.9298 10.9871 14 11.1567 14 11.3335C14 11.5103 13.9298 11.6798 13.8047 11.8049C13.6797 11.9299 13.5101 12.0001 13.3333 12.0001ZM13.3333 9.33344H6.66667C6.48986 9.33344 6.32029 9.2632 6.19526 9.13817C6.07024 9.01315 6 8.84357 6 8.66676C6 8.48995 6.07024 8.32038 6.19526 8.19535C6.32029 8.07032 6.48986 8.00008 6.66667 8.00008H13.3333C13.5101 8.00008 13.6797 8.07032 13.8047 8.19535C13.9298 8.32038 14 8.48995 14 8.66676C14 8.84357 13.9298 9.01315 13.8047 9.13817C13.6797 9.2632 13.5101 9.33344 13.3333 9.33344Z" fill="white"/>
</g>
</g>
<defs>
<filter id="filter0_d_385_12505" x="-10" y="-6" width="40" height="40" filterUnits="userSpaceOnUse" color-interpolation-filters="sRGB">
<feFlood flood-opacity="0" result="BackgroundImageFix"/>
<feColorMatrix in="SourceAlpha" type="matrix" values="0 0 0 0 0 0 0 0 0 0 0 0 0 0 0 0 0 0 127 0" result="hardAlpha"/>
<feOffset dy="4"/>
<feGaussianBlur stdDeviation="6"/>
<feComposite in2="hardAlpha" operator="out"/>
<feColorMatrix type="matrix" values="0 0 0 0 0 0 0 0 0 0 0 0 0 0 0 0 0 0 0.25 0"/>
<feBlend mode="normal" in2="BackgroundImageFix" result="effect1_dropShadow_385_12505"/>
<feBlend mode="normal" in="SourceGraphic" in2="effect1_dropShadow_385_12505" result="shape"/>
</filter>
<clipPath id="clip0_385_12505">
<rect width="20" height="20" fill="white"/>
</clipPath>
</defs>
</svg>
