<svg width="18" height="18" viewBox="0 0 18 18" fill="none" xmlns="http://www.w3.org/2000/svg">
<g clip-path="url(#clip0_432_1732)">
<path d="M6.75 9C7.64002 9 8.51005 8.73608 9.25007 8.24162C9.99009 7.74715 10.5669 7.04434 10.9075 6.22208C11.2481 5.39981 11.3372 4.49501 11.1635 3.6221C10.9899 2.74918 10.5613 1.94736 9.93198 1.31802C9.30264 0.688685 8.50082 0.260102 7.62791 0.0864683C6.75499 -0.0871652 5.85019 0.00194979 5.02793 0.342544C4.20566 0.683138 3.50285 1.25991 3.00839 1.99994C2.51392 2.73996 2.25 3.60999 2.25 4.5C2.25119 5.69311 2.72568 6.83701 3.56934 7.68067C4.41299 8.52432 5.55689 8.99881 6.75 9ZM6.75 1.5C7.34334 1.5 7.92336 1.67595 8.41671 2.00559C8.91006 2.33524 9.29458 2.80377 9.52164 3.35195C9.7487 3.90013 9.80811 4.50333 9.69236 5.08527C9.5766 5.66722 9.29088 6.20177 8.87132 6.62132C8.45176 7.04088 7.91721 7.3266 7.33527 7.44236C6.75333 7.55811 6.15013 7.4987 5.60195 7.27164C5.05377 7.04458 4.58524 6.66006 4.25559 6.16671C3.92595 5.67337 3.75 5.09335 3.75 4.5C3.75 3.70435 4.06607 2.94129 4.62868 2.37868C5.19129 1.81607 5.95435 1.5 6.75 1.5ZM13.5 17.25C13.5 17.4489 13.421 17.6397 13.2803 17.7803C13.1397 17.921 12.9489 18 12.75 18C12.5511 18 12.3603 17.921 12.2197 17.7803C12.079 17.6397 12 17.4489 12 17.25C12 15.8576 11.4469 14.5223 10.4623 13.5377C9.47775 12.5531 8.14239 12 6.75 12C5.35761 12 4.02226 12.5531 3.03769 13.5377C2.05312 14.5223 1.5 15.8576 1.5 17.25C1.5 17.4489 1.42098 17.6397 1.28033 17.7803C1.13968 17.921 0.948912 18 0.75 18C0.551088 18 0.360322 17.921 0.21967 17.7803C0.0790176 17.6397 0 17.4489 0 17.25C0 15.4598 0.711159 13.7429 1.97703 12.477C3.2429 11.2112 4.95979 10.5 6.75 10.5C8.54021 10.5 10.2571 11.2112 11.523 12.477C12.7888 13.7429 13.5 15.4598 13.5 17.25ZM17.7803 10.7198C17.8519 10.7889 17.909 10.8717 17.9483 10.9632C17.9876 11.0547 18.0083 11.1531 18.0092 11.2527C18.0101 11.3523 17.9911 11.451 17.9534 11.5432C17.9157 11.6354 17.86 11.7191 17.7895 11.7895C17.7191 11.86 17.6354 11.9157 17.5432 11.9534C17.451 11.9911 17.3523 12.0101 17.2527 12.0092C17.1531 12.0083 17.0547 11.9876 16.9632 11.9483C16.8717 11.909 16.7889 11.8519 16.7198 11.7803L15.375 10.4355L14.0303 11.7803C13.8888 11.9169 13.6993 11.9925 13.5027 11.9908C13.3061 11.989 13.1179 11.9102 12.9789 11.7711C12.8398 11.6321 12.761 11.444 12.7592 11.2473C12.7575 11.0507 12.8331 10.8612 12.9698 10.7198L14.3145 9.375L12.9698 8.03025C12.8331 7.8888 12.7575 7.69935 12.7592 7.5027C12.761 7.30605 12.8398 7.11794 12.9789 6.97889C13.1179 6.83983 13.3061 6.76096 13.5027 6.75925C13.6993 6.75754 13.8888 6.83313 14.0303 6.96975L15.375 8.3145L16.7198 6.96975C16.8612 6.83313 17.0507 6.75754 17.2473 6.75925C17.4439 6.76096 17.6321 6.83983 17.7711 6.97889C17.9102 7.11794 17.989 7.30605 17.9908 7.5027C17.9925 7.69935 17.9169 7.8888 17.7803 8.03025L16.4355 9.375L17.7803 10.7198Z" fill="#FE4545"/>
</g>
<defs>
<clipPath id="clip0_432_1732">
<rect width="18" height="18" fill="white"/>
</clipPath>
</defs>
</svg>
