<svg width="24" height="24" viewBox="0 0 24 24" fill="none" xmlns="http://www.w3.org/2000/svg">
<path d="M12 16.0435V19.3043C12 19.7527 11.6344 20.1196 11.1875 20.1196H7.9375C7.49062 20.1196 7.125 19.7527 7.125 19.3043C7.125 18.856 7.49062 18.4891 7.9375 18.4891H10.375V16.8587H6.3125C4.07 16.8587 2.25 15.0326 2.25 12.7826V7.07609C2.25 4.82609 4.07 3 6.3125 3H16.0625C18.305 3 20.125 4.82609 20.125 7.07609C20.125 7.52446 19.7594 7.8913 19.3125 7.8913C18.8656 7.8913 18.5 7.52446 18.5 7.07609C18.5 5.73098 17.4031 4.63043 16.0625 4.63043H6.3125C4.97187 4.63043 3.875 5.73098 3.875 7.07609V12.7826C3.875 14.1277 4.97187 15.2283 6.3125 15.2283H11.1875C11.6344 15.2283 12 15.5951 12 16.0435ZM21.75 12.7826V18.4891C21.75 20.2908 20.2956 21.75 18.5 21.75H16.875C15.0794 21.75 13.625 20.2908 13.625 18.4891V12.7826C13.625 10.981 15.0794 9.52174 16.875 9.52174H18.5C20.2956 9.52174 21.75 10.981 21.75 12.7826ZM20.125 12.7826C20.125 11.8859 19.3937 11.1522 18.5 11.1522H16.875C15.9812 11.1522 15.25 11.8859 15.25 12.7826V18.4891C15.25 19.3859 15.9812 20.1196 16.875 20.1196H18.5C19.3937 20.1196 20.125 19.3859 20.125 18.4891V12.7826Z" fill="white"/>
</svg>
