<svg width="41" height="41" viewBox="0 0 41 41" fill="none" xmlns="http://www.w3.org/2000/svg">
<g filter="url(#filter0_d_385_12496)">
<path d="M13.7573 18.9165C13.3609 18.9165 13.0107 18.7645 12.7069 18.4605C12.4028 18.1566 12.2508 17.8064 12.2508 17.4101V16.064C12.2508 15.9775 12.2599 15.884 12.2781 15.7836C12.2963 15.6832 12.3235 15.5896 12.3598 15.503L14.7477 9.86839C14.8673 9.60131 15.0675 9.37589 15.3485 9.19214C15.6295 9.00839 15.9217 8.91651 16.2252 8.91651H22.9721C23.3876 8.91651 23.7425 9.06367 24.0369 9.35797C24.3312 9.65242 24.4783 10.0074 24.4783 10.423V18.2932C24.4783 18.494 24.4372 18.6871 24.355 18.8723C24.2728 19.0578 24.1632 19.2189 24.0264 19.3557L19.6179 23.7355C19.4522 23.8924 19.2604 23.9891 19.0425 24.0255C18.8246 24.0617 18.6157 24.0292 18.416 23.9278C18.2162 23.8262 18.0719 23.6772 17.9833 23.4807C17.8946 23.284 17.8769 23.0751 17.9304 22.854L18.8279 18.9165H13.7573ZM27.411 8.91651C27.8266 8.91651 28.1816 9.06367 28.476 9.35797C28.7703 9.65242 28.9175 10.0074 28.9175 10.423V17.4101C28.9175 17.8256 28.7703 18.1806 28.476 18.4751C28.1816 18.7694 27.8266 18.9165 27.411 18.9165H27.2348C26.8192 18.9165 26.4642 18.7694 26.1698 18.4751C25.8755 18.1806 25.7283 17.8256 25.7283 17.4101V10.4148C25.7283 9.99929 25.8755 9.64568 26.1698 9.35401C26.4642 9.06235 26.8192 8.91651 27.2348 8.91651H27.411Z" fill="white"/>
</g>
<defs>
<filter id="filter0_d_385_12496" x="-1" y="-2" width="44" height="44" filterUnits="userSpaceOnUse" color-interpolation-filters="sRGB">
<feFlood flood-opacity="0" result="BackgroundImageFix"/>
<feColorMatrix in="SourceAlpha" type="matrix" values="0 0 0 0 0 0 0 0 0 0 0 0 0 0 0 0 0 0 127 0" result="hardAlpha"/>
<feOffset dy="4"/>
<feGaussianBlur stdDeviation="6"/>
<feComposite in2="hardAlpha" operator="out"/>
<feColorMatrix type="matrix" values="0 0 0 0 0 0 0 0 0 0 0 0 0 0 0 0 0 0 0.25 0"/>
<feBlend mode="normal" in2="BackgroundImageFix" result="effect1_dropShadow_385_12496"/>
<feBlend mode="normal" in="SourceGraphic" in2="effect1_dropShadow_385_12496" result="shape"/>
</filter>
</defs>
</svg>
