<svg width="14" height="9" viewBox="0 0 14 9" fill="none" xmlns="http://www.w3.org/2000/svg">
<path d="M7.00301 6.44144L12.7106 0.367251C12.8611 0.207052 13.0384 0.128969 13.2423 0.133C13.4464 0.137166 13.6237 0.219349 13.7742 0.379548C13.9247 0.539882 14 0.728572 14 0.94562C14 1.16267 13.9247 1.35136 13.7742 1.51169L7.97344 7.69736C7.83642 7.84318 7.68292 7.95123 7.51294 8.02152C7.34297 8.09181 7.17299 8.12695 7.00301 8.12695C6.83303 8.12695 6.66305 8.09181 6.49308 8.02152C6.3231 7.95123 6.1696 7.84318 6.03259 7.69736L0.220071 1.51169C0.069541 1.35136 -0.00376625 1.16059 0.000148532 0.939371C0.00406331 0.718157 0.0812853 0.527451 0.231815 0.367251C0.382345 0.207053 0.559647 0.126954 0.763722 0.126954C0.967669 0.126954 1.14491 0.207053 1.29544 0.367251L7.00301 6.44144Z" fill="white"/>
</svg>
