<svg width="18" height="18" viewBox="0 0 18 18" fill="none" xmlns="http://www.w3.org/2000/svg">
<path d="M6.75 9C9.23175 9 11.25 6.98175 11.25 4.5C11.25 2.01825 9.23175 0 6.75 0C4.26825 0 2.25 2.01825 2.25 4.5C2.25 6.98175 4.26825 9 6.75 9ZM6.75 1.5C8.4045 1.5 9.75 2.8455 9.75 4.5C9.75 6.1545 8.4045 7.5 6.75 7.5C5.0955 7.5 3.75 6.1545 3.75 4.5C3.75 2.8455 5.0955 1.5 6.75 1.5ZM8.0625 12.165C7.6365 12.0555 7.19475 12 6.75 12C3.855 12 1.5 14.355 1.5 17.25C1.5 17.664 1.164 18 0.75 18C0.336 18 0 17.664 0 17.25C0 13.5285 3.0285 10.5 6.75 10.5C7.3215 10.5 7.88925 10.5713 8.4375 10.713C8.83875 10.8165 9.0795 11.2253 8.97675 11.6265C8.874 12.0278 8.46675 12.2685 8.06325 12.1658L8.0625 12.165ZM17.3408 8.90925C16.4903 8.05875 15.0083 8.05875 14.1585 8.90925L9.12825 13.9395C8.562 14.5058 8.24925 15.2595 8.24925 16.0613V17.2508C8.24925 17.6648 8.58525 18.0008 8.99925 18.0008H10.1888C10.9905 18.0008 11.7435 17.688 12.3098 17.1218L17.34 12.0915C17.7653 11.6663 17.9993 11.1015 17.9993 10.5C17.9993 9.8985 17.7653 9.33375 17.3408 8.90925ZM16.2795 11.0303L11.2485 16.0605C10.9658 16.344 10.5893 16.5 10.188 16.5H9.7485V16.0605C9.7485 15.66 9.9045 15.2835 10.188 15L15.219 9.96975C15.5018 9.68625 15.996 9.68625 16.2795 9.96975C16.4213 10.1108 16.4993 10.299 16.4993 10.5C16.4993 10.701 16.4213 10.8885 16.2795 11.0303Z" fill="#8C9598"/>
</svg>
