<svg width="24" height="24" viewBox="0 0 24 24" fill="none" xmlns="http://www.w3.org/2000/svg">
<path d="M17.8333 2H6.16667C5.062 2.00132 4.00296 2.44073 3.22185 3.22185C2.44073 4.00296 2.00132 5.062 2 6.16667L2 17.8333C2.00132 18.938 2.44073 19.997 3.22185 20.7782C4.00296 21.5593 5.062 21.9987 6.16667 22H17.8333C18.938 21.9987 19.997 21.5593 20.7782 20.7782C21.5593 19.997 21.9987 18.938 22 17.8333V6.16667C21.9987 5.062 21.5593 4.00296 20.7782 3.22185C19.997 2.44073 18.938 2.00132 17.8333 2ZM18.6667 11.1667H20.3333V12.8333H18.6667V11.1667ZM18.6667 9.5V7.83333H20.3333V9.5H18.6667ZM17 11.1667H7V3.66667H17V11.1667ZM5.33333 12.8333H3.66667V11.1667H5.33333V12.8333ZM5.33333 9.5H3.66667V7.83333H5.33333V9.5ZM3.66667 14.5H5.33333V16.1667H3.66667V14.5ZM7 12.8333H17V20.3333H7V12.8333ZM18.6667 14.5H20.3333V16.1667H18.6667V14.5ZM20.3333 6.16667H18.6667V3.82C19.1524 3.99174 19.5733 4.30936 19.8716 4.72942C20.1699 5.14948 20.3312 5.65145 20.3333 6.16667ZM5.33333 3.82V6.16667H3.66667C3.6688 5.65145 3.83007 5.14948 4.12841 4.72942C4.42674 4.30936 4.84758 3.99174 5.33333 3.82ZM3.66667 17.8333H5.33333V20.18C4.84758 20.0083 4.42674 19.6906 4.12841 19.2706C3.83007 18.8505 3.6688 18.3486 3.66667 17.8333ZM18.6667 20.18V17.8333H20.3333C20.3312 18.3486 20.1699 18.8505 19.8716 19.2706C19.5733 19.6906 19.1524 20.0083 18.6667 20.18Z" fill="#8C9598"/>
</svg>
