<svg width="18" height="18" viewBox="0 0 18 18" fill="none" xmlns="http://www.w3.org/2000/svg">
    <path d="M16.5 4.29557V1.50309C16.5 1.08917 16.1647 0.753234 15.75 0.753234C15.3352 0.753234 15 1.08917 15 1.50309V3.27726L11.0977 0.644504C9.8235 -0.214835 8.1765 -0.214835 6.90225 0.644504L1.65225 4.18684C0.618 4.88496 0 6.04649 0 7.29501V14.2507C0 16.3181 1.68225 18 3.75 18H6C6.41475 18 6.75 17.6641 6.75 17.2501V11.2513C6.75 10.8381 7.086 10.5014 7.5 10.5014H10.5C10.914 10.5014 11.25 10.8381 11.25 11.2513V17.2501C11.25 17.6641 11.5852 18 12 18H14.25C16.3177 18 18 16.3181 18 14.2507V7.29501C18 6.10948 17.442 5.00194 16.5 4.29557ZM16.5 14.2507C16.5 15.491 15.4905 16.5003 14.25 16.5003H12.75V11.2513C12.75 10.011 11.7405 9.00169 10.5 9.00169H7.5C6.2595 9.00169 5.25 10.011 5.25 11.2513V16.5003H3.75C2.5095 16.5003 1.5 15.491 1.5 14.2507V7.29501C1.5 6.5459 1.8705 5.84853 2.4915 5.43011L7.7415 1.88777C8.5065 1.37187 9.4935 1.37187 10.2577 1.88777L15.5077 5.43011C16.1287 5.84853 16.4993 6.5459 16.4993 7.29501L16.5 14.2507Z" fill="#8C9598"/>
</svg>
