<svg width="50" height="50" viewBox="0 0 50 50" fill="none" xmlns="http://www.w3.org/2000/svg">
<path d="M43.75 42.187C43.75 43.0495 43.05 43.7495 42.1875 43.7495H10.9375C8.35312 43.7495 6.25 41.6464 6.25 39.062V7.81201C6.25 6.94951 6.95 6.24951 7.8125 6.24951C8.675 6.24951 9.375 6.94951 9.375 7.81201V39.062C9.375 39.923 10.0766 40.6245 10.9375 40.6245H42.1875C43.05 40.6245 43.75 41.3245 43.75 42.187ZM39.0625 14.062H32.8125C31.95 14.062 31.25 14.762 31.25 15.6245C31.25 16.487 31.95 17.187 32.8125 17.187H38.3797L30.7906 24.5417C30.2016 25.1323 29.1719 25.1323 28.5828 24.5417C28.5188 24.4792 26.6469 23.1464 26.6469 23.1464C24.8687 21.4698 21.8391 21.5323 20.1438 23.2261L12.9781 30.1229C12.3563 30.7214 12.3375 31.7105 12.9359 32.3323C13.2437 32.6511 13.6516 32.812 14.0625 32.812C14.4531 32.812 14.8438 32.6667 15.1453 32.3761L22.3328 25.4573C22.9219 24.8667 23.9516 24.8667 24.5406 25.4573C24.6047 25.5198 26.4766 26.8526 26.4766 26.8526C28.2563 28.5308 31.2828 28.4714 32.9828 26.7683L40.6234 19.362V24.9979C40.6234 25.8604 41.3234 26.5604 42.1859 26.5604C43.0484 26.5604 43.7484 25.8604 43.7484 24.9979V18.7479C43.7484 16.1636 41.6453 14.0604 39.0609 14.0604L39.0625 14.062Z" fill="#FE4545"/>
</svg>
