<svg width="105" height="16" viewBox="0 0 105 16" fill="none" xmlns="http://www.w3.org/2000/svg">
<path d="M14.5462 13.5395C13.2041 14.7171 11.2304 15.3059 8.62515 15.3059C6.02647 15.3059 4.05279 14.7171 2.7041 13.5395C1.35542 12.3553 0.681075 10.4836 0.681075 7.92434C0.681075 5.36513 1.35542 3.49671 2.7041 2.31908C4.05279 1.14145 6.02647 0.552632 8.62515 0.552632C11.2304 0.552632 13.2041 1.14145 14.5462 2.31908C15.8949 3.49671 16.5692 5.36513 16.5692 7.92434C16.5692 10.4836 15.8949 12.3553 14.5462 13.5395ZM11.8521 4.40132C11.1877 3.61184 10.112 3.21711 8.62515 3.21711C7.14489 3.21711 6.06923 3.61184 5.39818 4.40132C4.73371 5.19079 4.40147 6.36842 4.40147 7.93421C4.40147 9.49342 4.73371 10.6678 5.39818 11.4572C6.06923 12.2401 7.14489 12.6316 8.62515 12.6316C10.112 12.6316 11.1877 12.2401 11.8521 11.4572C12.5166 10.6678 12.8488 9.49342 12.8488 7.93421C12.8488 6.36842 12.5166 5.19079 11.8521 4.40132ZM29.3094 14.5658C29.3094 14.8553 29.1383 15 28.7962 15H26.9311C26.2995 15 25.7962 14.6908 25.4212 14.0724L24.1679 12.0296C23.6284 11.1546 22.8455 10.7171 21.8192 10.7171V14.398C21.8192 14.5757 21.76 14.7204 21.6416 14.8322C21.5298 14.9441 21.3883 15 21.2173 15H19.0067C18.8291 15 18.6844 14.9441 18.5725 14.8322C18.4607 14.7204 18.4048 14.5757 18.4048 14.398V1.46053C18.4048 1.2829 18.4607 1.13816 18.5725 1.02632C18.6909 0.907895 18.8357 0.848685 19.0067 0.848685H21.2173C21.3949 0.848685 21.5396 0.907895 21.6515 1.02632C21.7633 1.13816 21.8192 1.2829 21.8192 1.46053V8.46711C22.964 8.46711 23.7469 8.02303 24.1679 7.13487L25.1153 5.12171C25.2469 4.83882 25.4409 4.61184 25.6975 4.44079C25.9541 4.26974 26.2304 4.18421 26.5265 4.18421H28.3916C28.7205 4.18421 28.885 4.3125 28.885 4.56908C28.885 4.71382 28.8324 4.89803 28.7271 5.12171L27.4541 7.80592C27.237 8.25329 26.9409 8.63816 26.5659 8.96053C26.1909 9.28289 25.7863 9.49013 25.3521 9.58224C26.1613 9.82566 26.862 10.4178 27.4541 11.3586L29.1317 14.0724C29.2436 14.2632 29.3028 14.4276 29.3094 14.5658ZM35.7929 12.8586L37.1449 12.7401H37.51C37.6877 12.7401 37.8324 12.7961 37.9442 12.9079C38.0627 13.0197 38.1219 13.1645 38.1219 13.3421V14.398C38.1219 14.5428 38.0627 14.6743 37.9442 14.7928C37.8324 14.9046 37.6877 14.9737 37.51 15C36.839 15.1316 35.964 15.1974 34.885 15.1974C32.0561 15.1974 30.6416 13.7171 30.6416 10.7566V1.46053C30.6416 1.2829 30.6975 1.13816 30.8094 1.02632C30.9278 0.907895 31.0725 0.848685 31.2436 0.848685H33.4541C33.6252 0.848685 33.7666 0.907895 33.8784 1.02632C33.9969 1.13816 34.0561 1.2829 34.0561 1.46053V4.75658H36.8094C36.9804 4.75658 37.1219 4.8125 37.2337 4.92434C37.3521 5.03618 37.4113 5.18092 37.4113 5.35855V6.5329C37.4113 6.71053 37.3521 6.85526 37.2337 6.96711C37.1219 7.07895 36.9804 7.13487 36.8094 7.13487H34.0561V10.7566C34.0561 11.4276 34.214 11.9474 34.5298 12.3158C34.8455 12.6776 35.2666 12.8586 35.7929 12.8586ZM40.5692 13.7763C39.5429 12.8289 39.0298 11.4342 39.0298 9.59211C39.0298 7.74342 39.5429 6.34868 40.5692 5.4079C41.5955 4.46053 43.0692 3.98684 44.9903 3.98684C46.9179 3.98684 48.3949 4.46053 49.4212 5.4079C50.4475 6.34868 50.9607 7.74342 50.9607 9.59211C50.9607 11.4342 50.4475 12.8289 49.4212 13.7763C48.3949 14.7237 46.9179 15.1974 44.9903 15.1974C43.0692 15.1974 41.5955 14.7237 40.5692 13.7763ZM43.0659 7.02632C42.658 7.55921 42.4541 8.41118 42.4541 9.58224C42.4541 10.7533 42.658 11.6086 43.0659 12.148C43.4738 12.6875 44.1153 12.9572 44.9903 12.9572C45.8719 12.9572 46.5166 12.6875 46.9245 12.148C47.339 11.6086 47.5462 10.7533 47.5462 9.58224C47.5462 8.41118 47.339 7.55921 46.9245 7.02632C46.5166 6.49342 45.8719 6.22697 44.9903 6.22697C44.1153 6.22697 43.4738 6.49342 43.0659 7.02632ZM52.7863 1.46053C52.7863 1.2829 52.8423 1.13816 52.9541 1.02632C53.0725 0.907895 53.2173 0.848685 53.3883 0.848685H55.5988C55.7699 0.848685 55.9113 0.907895 56.0232 1.02632C56.1416 1.13816 56.2008 1.2829 56.2008 1.46053V4.49013C57.2666 4.15461 58.2173 3.98684 59.0528 3.98684C60.6712 3.98684 61.9574 4.4704 62.9113 5.4375C63.8653 6.39803 64.3423 7.78618 64.3423 9.60197C64.3423 13.3322 62.2534 15.1974 58.0758 15.1974C57.1219 15.1974 56.1317 15.0921 55.1054 14.8816C54.0857 14.6645 53.3127 14.4013 52.7863 14.0921V1.46053ZM56.2008 6.76974V12.5921C56.7666 12.7434 57.487 12.8191 58.362 12.8191C59.237 12.8191 59.8653 12.5658 60.2469 12.0592C60.635 11.5526 60.8291 10.7336 60.8291 9.60197C60.8291 8.47039 60.6383 7.65132 60.2567 7.14474C59.8817 6.63158 59.2436 6.375 58.3423 6.375C57.7633 6.375 57.0495 6.50658 56.2008 6.76974ZM66.8587 14.2895C65.9903 13.6842 65.5561 12.8289 65.5561 11.7237C65.5561 10.6184 65.9903 9.76974 66.8587 9.17763C67.7337 8.58553 68.8587 8.28947 70.2337 8.28947H73.5002C73.5002 7.51974 73.339 6.98355 73.0166 6.68092C72.6942 6.37829 72.1284 6.22697 71.3192 6.22697C70.5166 6.22697 69.9508 6.42763 69.6219 6.82895C69.2995 7.22368 68.9015 7.42105 68.4278 7.42105H66.9574C66.7798 7.42105 66.6317 7.36513 66.5133 7.25329C66.4015 7.13487 66.3455 6.99013 66.3455 6.81908C66.3455 4.93092 68.1383 3.98684 71.7238 3.98684C73.2896 3.98684 74.5462 4.33882 75.4936 5.04276C76.4409 5.74013 76.9146 6.82237 76.9146 8.28947V14.398C76.9146 14.5757 76.8587 14.7204 76.7469 14.8322C76.635 14.9441 76.4903 15 76.3127 15H74.408C74.2304 15 74.0857 14.9441 73.9738 14.8322C73.862 14.7138 73.8061 14.5691 73.8061 14.398V14.0921C72.7666 14.8355 71.5659 15.2039 70.2041 15.1974C68.8488 15.1974 67.7337 14.8947 66.8587 14.2895ZM70.4705 10.5296C70.01 10.5296 69.6449 10.6414 69.3752 10.8651C69.112 11.0888 68.9804 11.3783 68.9804 11.7336C68.9804 12.0888 69.1186 12.3816 69.3949 12.6118C69.6712 12.8421 70.0627 12.9572 70.5692 12.9572C71.5824 12.9572 72.5594 12.6612 73.5002 12.0691V10.5296H70.4705ZM79.3521 14.398V4.79605C79.3521 4.61842 79.408 4.47368 79.5199 4.36184C79.6383 4.24342 79.783 4.18421 79.9541 4.18421H82.1646C82.3357 4.18421 82.4771 4.24342 82.589 4.36184C82.7074 4.47368 82.7666 4.61842 82.7666 4.79605V5.41776C83.8982 4.46382 85.1021 3.98684 86.3784 3.98684C87.6613 3.98684 88.7041 4.37829 89.5067 5.16118C90.3094 5.9375 90.7107 7.12829 90.7107 8.73355V14.398C90.7107 14.5691 90.6515 14.7138 90.533 14.8322C90.4212 14.9441 90.2765 15 90.0988 15H87.8982C87.7271 15 87.5824 14.9441 87.464 14.8322C87.3521 14.7138 87.2962 14.5691 87.2962 14.398V8.73355C87.2962 7.16118 86.6679 6.375 85.4113 6.375C84.589 6.375 83.7074 6.8454 82.7666 7.78618V14.398C82.7666 14.5691 82.7074 14.7138 82.589 14.8322C82.4771 14.9441 82.3357 15 82.1646 15H79.9541C79.783 15 79.6383 14.9441 79.5199 14.8322C79.408 14.7138 79.3521 14.5691 79.3521 14.398ZM104.053 14.5658C104.053 14.8553 103.882 15 103.54 15H101.674C101.043 15 100.54 14.6908 100.165 14.0724L98.9113 12.0296C98.3719 11.1546 97.589 10.7171 96.5627 10.7171V14.398C96.5627 14.5757 96.5034 14.7204 96.385 14.8322C96.2732 14.9441 96.1317 15 95.9607 15H93.7502C93.5725 15 93.4278 14.9441 93.3159 14.8322C93.2041 14.7204 93.1482 14.5757 93.1482 14.398V1.46053C93.1482 1.2829 93.2041 1.13816 93.3159 1.02632C93.4344 0.907895 93.5791 0.848685 93.7502 0.848685H95.9607C96.1383 0.848685 96.283 0.907895 96.3949 1.02632C96.5067 1.13816 96.5627 1.2829 96.5627 1.46053V8.46711C97.7074 8.46711 98.4903 8.02303 98.9113 7.13487L99.8587 5.12171C99.9903 4.83882 100.184 4.61184 100.441 4.44079C100.698 4.26974 100.974 4.18421 101.27 4.18421H103.135C103.464 4.18421 103.628 4.3125 103.628 4.56908C103.628 4.71382 103.576 4.89803 103.471 5.12171L102.198 7.80592C101.98 8.25329 101.684 8.63816 101.309 8.96053C100.934 9.28289 100.53 9.49013 100.096 9.58224C100.905 9.82566 101.605 10.4178 102.198 11.3586L103.875 14.0724C103.987 14.2632 104.046 14.4276 104.053 14.5658Z" fill="white"/>
</svg>
