<svg width="107" height="31" viewBox="0 0 107 31" fill="none" xmlns="http://www.w3.org/2000/svg">
<path d="M17.6709 3.0657C17.2972 2.46172 16.8111 1.9359 16.237 1.51666C15.6586 1.12017 15.0234 0.813203 14.354 0.602876C13.6264 0.365546 12.876 0.206381 12.1143 0.12964C11.2232 0.0429511 10.3279 0.00173898 9.43404 0.00600238H1.68603C0.944195 -0.0636331 0.28763 0.480659 0.216573 1.22107C0.215152 1.23386 0.213733 1.24807 0.213733 1.26086C0.213733 1.26086 0.213733 1.30776 0.213733 1.33049V13.9132C1.28811 16.2183 3.07163 18.1183 5.30423 19.3362V16.8109C5.23317 15.9923 5.83857 15.2704 6.65715 15.1993C6.65857 15.1993 6.65999 15.1993 6.65999 15.1993H8.98496C12.1569 15.1993 14.5771 14.5357 16.2455 13.2083C17.9139 11.881 18.7609 9.91272 18.7865 7.30494C18.7894 6.55316 18.7012 5.80422 18.5236 5.07376C18.3474 4.3632 18.0589 3.68531 17.6709 3.0657ZM13.1318 9.5347C12.8618 9.99941 12.4596 10.3746 11.9779 10.6119C11.4549 10.862 10.8907 11.0113 10.3123 11.0539C9.67705 11.1335 9.03897 11.1718 8.39803 11.1704H6.16686C5.63251 11.1704 5.29854 10.737 5.29854 10.1017V4.91033C5.27012 4.48399 5.59272 4.11449 6.01906 4.08465C6.0688 4.08181 6.11712 4.08323 6.16543 4.08891H8.39661C9.11997 4.08891 9.80211 4.11023 10.4416 4.15144C11.0129 4.17845 11.5728 4.31629 12.0916 4.55505C12.5691 4.76822 12.9684 5.12492 13.2299 5.57826C13.5269 6.18509 13.6619 6.85728 13.625 7.5309C13.6406 8.23009 13.4686 8.91934 13.129 9.53043L13.1318 9.5347ZM5.31418 20.0951C3.40418 19.4059 1.66471 18.3116 0.216573 16.8876V22.9701C0.14978 23.4447 0.480906 23.8839 0.955564 23.9492C0.966933 23.9507 0.979723 23.9521 0.991092 23.9535H4.49276C5.42218 23.9535 5.31418 22.9616 5.31418 22.9616V20.0951ZM53.4437 6.6299H50.4223C49.8269 6.59153 49.2897 6.9866 49.1519 7.56785L45.6417 17.2372C45.6417 17.2372 42.5422 8.42763 42.3105 7.74549C42.1755 7.09745 41.6085 6.6299 40.9462 6.62137H38.1651C37.1731 6.62137 37.1731 7.39589 37.3053 7.69859C37.4375 8.00129 41.2418 18.4296 42.7283 22.4201C42.9628 22.9118 43.1263 23.4334 43.2158 23.9691C43.1191 24.4992 42.9188 25.0051 42.6274 25.4571C42.5137 25.6489 42.3844 25.8308 42.2395 25.9999C45.1059 25.1473 48.4384 22.0407 50.1111 18.6854C51.8008 14.0368 54.0235 7.83786 54.1244 7.52095C54.2338 7.03208 54.2338 6.6299 53.4437 6.6299ZM39.9784 26.945C39.7198 26.9379 39.4612 26.918 39.2039 26.8825C38.8856 26.8356 38.2816 26.8825 38.2816 27.4253V29.7503C38.2816 30.6414 38.7151 30.7039 38.9396 30.765C39.6573 30.9227 40.3906 31.0009 41.1239 30.9981C41.9922 31.0208 42.8534 30.8432 43.6421 30.4793C44.3626 30.1155 45.0036 29.6096 45.5251 28.9914C46.1163 28.315 46.6166 27.566 47.013 26.7602C47.4422 25.9033 47.8501 24.9554 48.2366 23.9166L48.6857 22.6844C47.7876 23.5741 43.8212 27.3159 39.9784 26.945ZM35.4067 9.41106C35.2418 9.02025 35.0173 8.65643 34.7401 8.33384C34.4602 8.0354 34.1418 7.77533 33.7951 7.55932C33.4199 7.30352 33.0206 7.08608 32.6013 6.90844C32.175 6.74359 31.7373 6.61142 31.2925 6.51337C30.7823 6.4011 30.2636 6.32578 29.7434 6.28883C29.1849 6.23198 28.5611 6.20356 27.869 6.20356C23.2517 6.20356 20.6226 7.66022 19.9817 10.5735C19.8779 10.9885 20.1295 11.4092 20.5445 11.5143C20.5842 11.5243 20.624 11.5314 20.6638 11.5342H23.5075C24.282 11.5342 24.282 11.2941 24.5762 10.6275C24.7055 10.2652 24.9372 9.94683 25.2427 9.71376C25.9689 9.24479 26.8287 9.02451 27.6913 9.08562C28.4957 9.00319 29.3043 9.20357 29.9765 9.65123C30.4895 10.1302 30.7937 10.7938 30.8207 11.4959C30.8207 12.4565 30.5265 13.0918 29.3327 13.0918C26.5047 12.9909 23.4677 13.3092 21.7553 14.2926C20.04 15.34 19.0167 17.2259 19.075 19.2353C19.0551 20.0042 19.2114 20.7673 19.5326 21.4665C19.8339 22.0748 20.2716 22.6049 20.8116 23.0156C21.3772 23.4774 22.031 23.8199 22.733 24.0231C23.526 24.2377 24.3446 24.3415 25.166 24.3329C26.2716 24.35 27.3716 24.1937 28.4275 23.8682C29.3612 23.486 30.2437 22.9886 31.0537 22.3888V22.9317C31.0537 23.4661 31.2157 23.9464 31.8282 23.9464H35.121C35.7875 23.9464 35.9424 23.4732 35.9424 22.8848V12.7422C35.9467 12.1098 35.9026 11.4774 35.8103 10.8521C35.7364 10.3561 35.6014 9.87293 35.4067 9.41106ZM30.9045 19.3746C30.9045 19.3746 30.0518 21.1567 27.0305 21.1567C26.3057 21.1894 25.5895 20.9919 24.9855 20.5911C24.4455 20.1719 24.1527 19.5068 24.211 18.8246C24.1428 17.9023 24.6515 17.0326 25.49 16.6404C26.7122 16.1714 28.0168 15.9525 29.3256 15.9966C30.0916 15.8815 30.8065 16.4087 30.9216 17.1747C30.9329 17.2472 30.9372 17.3197 30.9372 17.3921L30.9045 19.3746Z" fill="white"/>
<path d="M106.208 12.8522C106.987 14.1042 106.987 15.6902 106.208 16.9436C105.434 18.1217 101.21 22.631 99.8159 24.0791C98.6065 25.334 96.9722 26.6045 95.3535 26.6045H61.812C57.2714 26.6045 57 25.0554 57 21.5992V7.50587C57 3.96441 58.046 2.93408 61.1526 2.93408H95.4303C97.0347 2.93408 98.4672 3.7555 100.079 5.41396C101.49 6.83083 105.651 12.0151 106.208 12.8522Z" fill="white"/>
<path d="M64.616 8.37942V8.29415C64.616 7.83655 64.616 7.396 63.8415 7.396H61.0291C60.3711 7.396 60.3398 7.7527 60.3398 8.30979V12.0289C61.4483 10.4841 62.9164 9.2321 64.616 8.37942Z" fill="#191919"/>
<path d="M83.4534 21.8302V21.6284V12.6568C83.4534 8.90218 81.795 7.02344 78.4795 7.02344C77.5571 7.03481 76.6547 7.3034 75.8759 7.79796C75.0176 8.33372 74.2516 9.00308 73.6064 9.78186C73.3136 8.94055 72.7466 8.22287 71.9948 7.74395C71.1407 7.27356 70.1729 7.04475 69.198 7.08597C67.7641 7.09165 66.3714 7.57057 65.2388 8.45026C64.9915 8.69753 60.3344 12.3243 60.3344 16.1059V21.8473C60.3344 22.0249 60.2421 22.7227 61.0237 22.7227H63.9441C64.8508 22.7227 64.7655 22.1258 64.7655 21.8785V12.5815C65.253 11.9235 66.2534 10.3503 67.9034 10.3503C68.4406 10.302 68.9621 10.5478 69.2677 10.9941C69.5988 11.6549 69.7437 12.3953 69.6855 13.1329V20.3778V21.8657C69.6855 22.0434 69.5931 22.7412 70.3747 22.7412H73.2653C74.172 22.7412 74.0867 22.1443 74.0867 21.897V21.6952V12.5531C74.614 11.8951 75.6358 10.3219 77.2246 10.3219C77.7675 10.2778 78.2947 10.5223 78.6116 10.9657C78.9484 11.6251 79.0962 12.3655 79.038 13.1045V20.3494V21.8373C79.038 22.015 78.9456 22.7127 79.7272 22.7127H82.6476C83.5614 22.6602 83.4534 22.0704 83.4534 21.8302Z" fill="#191919"/>
<path d="M99.5589 18.1828C98.54 20.9214 95.8611 22.6821 92.9421 22.5301C88.4798 22.5301 85.5039 19.4931 85.5039 14.937C85.5039 10.3808 88.6034 7.18896 92.7872 7.18896C96.971 7.18896 99.7607 10.0867 99.9384 14.7593C99.9384 15.3562 99.7906 15.8835 99.0402 15.8835H89.5726C89.6351 18.3861 90.836 19.7575 92.9734 19.7575C94.133 19.7859 95.2031 19.1393 95.7162 18.099C95.9165 17.8062 96.2519 17.6343 96.6072 17.6414H99.0473C99.3159 17.6286 99.5447 17.8361 99.5575 18.1061C99.5589 18.1431 99.5575 18.1786 99.5504 18.2155L99.5589 18.1828ZM92.8028 10.0781C91.0278 10.0781 89.827 11.3102 89.5641 13.3396H95.918C95.7545 11.5661 94.7938 10.0781 92.8028 10.0781Z" fill="#191919"/>
</svg>
