<svg width="123" height="19" viewBox="0 0 123 19" fill="none" xmlns="http://www.w3.org/2000/svg">
<g clip-path="url(#clip0_437_7892)">
<mask id="mask0_437_7892" style="mask-type:luminance" maskUnits="userSpaceOnUse" x="0" y="0" width="123" height="19">
<path d="M122.771 0H0V19H122.771V0Z" fill="white"/>
</mask>
<g mask="url(#mask0_437_7892)">
<path d="M21.4175 1.26639C20.4641 0.42249 19.2514 -0.0277318 18.0056 -0.000279567H0V18.9997H4.24336V12.8473H18.0056C19.2465 12.8751 20.4562 12.4367 21.4175 11.6108C21.9676 11.0991 22.4043 10.4665 22.6966 9.75775C22.9889 9.04905 23.1297 8.28148 23.1091 7.50924V5.33781C23.1314 4.56976 22.9913 3.80605 22.6987 3.10193C22.4062 2.39782 21.9685 1.77087 21.4175 1.26639ZM18.8657 7.69019C18.8657 8.35368 18.7224 8.56479 18.5503 8.71559C18.2659 8.92652 17.9232 9.03255 17.5755 9.01717H4.24336V3.82987H17.5755C17.9232 3.81452 18.2659 3.92056 18.5503 4.13146C18.7224 4.28225 18.8657 4.49336 18.8657 5.15686V7.69019Z" fill="white"/>
<path d="M99.5764 3.82967V7.56935H116.894V11.3995H99.5764V15.1694H118.012V18.9995H95.333V-0.000488281H118.012V3.82967H99.5764Z" fill="white"/>
<path d="M121.308 18.0044V18.1552H120.792V18.9695H120.591V18.1552H120.075V18.0044H121.308Z" fill="white"/>
<path d="M121.535 18.0044L122.08 18.7885L122.596 18.0044H122.768V18.9695H122.596V18.3361L122.137 18.9695H121.994L121.564 18.3361V18.9695H121.363V18.0044H121.535Z" fill="white"/>
<path d="M89.9441 15.1691H75.0636L80.4538 9.49924L77.7014 6.604L68.6699 16.104L71.4224 18.9992H93.5853L89.9441 15.1691Z" fill="white"/>
<path d="M70.763 0.964591L73.5155 3.82967H86.7616L81.4001 9.49951L84.1238 12.3947L93.1553 2.89475L90.4029 -0.000488281H65.7455L57.8036 8.35348L52.27 -0.000488281H47.1378L54.7644 11.5503L48.6574 17.9741L36.7875 -0.000488281H33.0889L20.5596 18.9995H25.6917L28.2148 15.1995H41.6616L44.1847 18.9995H53.6176L70.763 0.964591ZM30.7378 11.3392L34.9238 4.9757L39.1099 11.3392H30.7378Z" fill="white"/>
</g>
</g>
<defs>
<clipPath id="clip0_437_7892">
<rect width="123" height="19" fill="white"/>
</clipPath>
</defs>
</svg>
