<svg width="24" height="24" viewBox="0 0 24 24" fill="none" xmlns="http://www.w3.org/2000/svg">
<path d="M16.8125 20.25H7.1875C6.27615 20.2489 5.40245 19.8864 4.75803 19.242C4.11361 18.5976 3.75109 17.7238 3.75 16.8125L3.75 7.1875C3.75109 6.27615 4.11361 5.40245 4.75803 4.75803C5.40245 4.11361 6.27615 3.75109 7.1875 3.75L16.8125 3.75C17.7238 3.75109 18.5976 4.11361 19.242 4.75803C19.8864 5.40245 20.2489 6.27615 20.25 7.1875V16.8125C20.2489 17.7238 19.8864 18.5976 19.242 19.242C18.5976 19.8864 17.7238 20.2489 16.8125 20.25ZM7.1875 5.125C6.64049 5.125 6.11589 5.3423 5.72909 5.72909C5.3423 6.11589 5.125 6.64049 5.125 7.1875V16.8125C5.125 17.3595 5.3423 17.8841 5.72909 18.2709C6.11589 18.6577 6.64049 18.875 7.1875 18.875H16.8125C17.3595 18.875 17.8841 18.6577 18.2709 18.2709C18.6577 17.8841 18.875 17.3595 18.875 16.8125V7.1875C18.875 6.64049 18.6577 6.11589 18.2709 5.72909C17.8841 5.3423 17.3595 5.125 16.8125 5.125H7.1875ZM10.1726 15.4409C9.88602 15.44 9.60476 15.3634 9.35725 15.2189C9.11274 15.0789 8.90979 14.8765 8.76918 14.6324C8.62858 14.3883 8.55535 14.1112 8.557 13.8294V10.1706C8.55677 9.88879 8.63064 9.61191 8.77121 9.3677C8.91178 9.12349 9.11411 8.92055 9.35788 8.77923C9.60166 8.63791 9.87831 8.56318 10.1601 8.56255C10.4419 8.56192 10.7188 8.6354 10.9632 8.77562L14.5919 10.5872C14.8439 10.7233 15.055 10.9243 15.2032 11.1694C15.3514 11.4145 15.4314 11.6947 15.4349 11.9812C15.4383 12.2676 15.3651 12.5497 15.2228 12.7983C15.0805 13.0469 14.8743 13.2529 14.6256 13.3949L10.9296 15.2422C10.699 15.3737 10.438 15.4423 10.1726 15.4409ZM10.1554 9.94094C10.1175 9.94092 10.0803 9.95088 10.0475 9.96981C10.0118 9.98964 9.98226 10.0188 9.96191 10.0542C9.94156 10.0895 9.93122 10.1298 9.932 10.1706V13.8294C9.93223 13.8696 9.94291 13.9091 9.963 13.9439C9.98308 13.9787 10.0119 14.0077 10.0465 14.028C10.0812 14.0483 10.1206 14.0593 10.1608 14.0598C10.201 14.0603 10.2406 14.0503 10.2757 14.0309L13.9718 12.1829C13.9993 12.1613 14.0212 12.1335 14.0355 12.1016C14.0499 12.0697 14.0563 12.0349 14.0542 12C14.0551 11.9591 14.0447 11.9188 14.0242 11.8834C14.0038 11.848 13.9739 11.8189 13.9381 11.7992L10.3122 9.98769C10.2649 9.95869 10.2109 9.94257 10.1554 9.94094Z" fill="white"/>
</svg>
