<svg width="17" height="21" viewBox="0 0 17 21" fill="none" xmlns="http://www.w3.org/2000/svg">
<path d="M8.5 10.5C9.55483 10.5 10.586 10.1921 11.463 9.61522C12.3401 9.03834 13.0237 8.2184 13.4274 7.25909C13.831 6.29978 13.9366 5.24418 13.7309 4.22578C13.5251 3.20738 13.0171 2.27192 12.2712 1.53769C11.5254 0.803466 10.575 0.303452 9.54048 0.10088C8.50592 -0.101693 7.43356 0.00227474 6.45902 0.399635C5.48448 0.796995 4.65153 1.4699 4.0655 2.33326C3.47946 3.19662 3.16667 4.21165 3.16667 5.25C3.16808 6.64196 3.73044 7.97651 4.73032 8.96078C5.73021 9.94504 7.08595 10.4986 8.5 10.5ZM8.5 1.75C9.20322 1.75 9.89065 1.95527 10.4754 2.33986C11.0601 2.72444 11.5158 3.27107 11.7849 3.91061C12.054 4.55015 12.1244 5.25388 11.9872 5.93282C11.85 6.61175 11.5114 7.23539 11.0142 7.72488C10.5169 8.21436 9.88337 8.5477 9.19366 8.68275C8.50395 8.8178 7.78904 8.74849 7.13935 8.48358C6.48966 8.21867 5.93435 7.77007 5.54366 7.1945C5.15297 6.61893 4.94444 5.94224 4.94444 5.25C4.94444 4.32174 5.31905 3.43151 5.98584 2.77513C6.65264 2.11875 7.55701 1.75 8.5 1.75Z" fill="#8C9598"/>
<path d="M8.5 12.25C6.37899 12.2523 4.34553 13.0827 2.84574 14.5591C1.34596 16.0354 0.502353 18.0371 0.5 20.125C0.5 20.3571 0.59365 20.5796 0.760349 20.7437C0.927048 20.9078 1.15314 21 1.38889 21C1.62464 21 1.85073 20.9078 2.01743 20.7437C2.18413 20.5796 2.27778 20.3571 2.27778 20.125C2.27778 18.5005 2.93333 16.9426 4.10022 15.794C5.26712 14.6453 6.84976 14 8.5 14C10.1502 14 11.7329 14.6453 12.8998 15.794C14.0667 16.9426 14.7222 18.5005 14.7222 20.125C14.7222 20.3571 14.8159 20.5796 14.9826 20.7437C15.1493 20.9078 15.3754 21 15.6111 21C15.8469 21 16.073 20.9078 16.2397 20.7437C16.4063 20.5796 16.5 20.3571 16.5 20.125C16.4976 18.0371 15.654 16.0354 14.1543 14.5591C12.6545 13.0827 10.621 12.2523 8.5 12.25Z" fill="#8C9598"/>
</svg>
