<svg width="138" height="23" viewBox="0 0 138 23" fill="none" xmlns="http://www.w3.org/2000/svg">
<path d="M61.7036 6.67157L64.5792 4.52246H54.9492V17.3975H64.5792V15.2466H57.6999V11.9605H63.5796V9.81134H57.6999V6.67157H61.7036Z" fill="white"/>
<path d="M47.6727 9.53646H44.3366V6.67157H49.6737L52.551 4.52246H41.5859V17.3975H47.3175C50.5287 17.3975 52.3833 15.9213 52.3833 13.3509C52.3833 10.8859 50.7161 9.53646 47.6727 9.53646ZM47.214 15.2466H44.3366V11.6856H47.214C48.965 11.6856 49.7772 12.2764 49.7772 13.4777C49.7772 14.679 48.9026 15.2466 47.214 15.2466Z" fill="white"/>
<path d="M72.3763 4.52246H67.1445V17.3975H69.8952V13.7508H72.3977C75.732 13.7508 77.8169 11.9819 77.8169 9.13662C77.8169 6.29137 75.732 4.52246 72.3763 4.52246ZM72.3138 11.6017H69.8755V6.67157H72.3138C74.0863 6.67157 75.0448 7.55692 75.0448 9.13662C75.0448 10.7163 74.0863 11.6017 72.3138 11.6017Z" fill="white"/>
<path d="M36.874 14.6153C36.1457 15.017 35.3318 15.2276 34.4982 15.2276C32.0171 15.2276 30.2249 13.4355 30.2249 10.9704C30.2249 8.50537 32.0171 6.71325 34.4982 6.71325C35.3942 6.69362 36.2707 6.98814 36.9989 7.51471L38.9802 6.04032L38.8553 5.91358C37.7093 4.88008 36.1653 4.35352 34.4143 4.35352C32.5186 4.35352 30.7872 5.00682 29.5377 6.18668C28.2865 7.40939 27.5778 9.11583 27.6189 10.8865C27.5975 12.6769 28.2865 14.4047 29.5377 15.6685C30.8497 16.9126 32.6007 17.6087 34.3946 17.5659C36.3742 17.5659 38.1038 16.8698 39.2712 15.606L37.5005 14.278L36.874 14.6153Z" fill="white"/>
<path d="M110.9 4.54388V17.4171H113.651V12.1497H119.509V17.4171H122.261V4.54388H119.509V9.83276H113.651V4.54388H110.9ZM106.168 17.4171H109.065L103.687 4.54388H100.893L95.4118 17.4171H98.1839L99.2888 14.8253H105.126L106.168 17.4171ZM100.122 12.6762L102.248 7.51408L104.249 12.6762H100.122ZM128.432 12.2139H130.14L134.351 17.3975H137.894L132.266 10.7377L137.186 4.52246H134.039L129.953 10.0434H128.432V4.52246H125.68V17.3975H128.432V12.2139ZM86.3227 9.55788V6.69299H93.5144V4.54388H83.5703V17.4171H89.3037C92.513 17.4171 94.3694 15.9427 94.3694 13.3724C94.3694 10.9073 92.7022 9.55788 89.6571 9.55788H86.3227ZM86.3227 15.268V11.707H89.2001C90.9494 11.707 91.7633 12.2978 91.7633 13.4991C91.7633 14.7004 90.9083 15.2894 89.2001 15.2894H86.3227V15.268Z" fill="white"/>
<path d="M19.0132 4.43848C19.513 5.09178 19.9306 5.80755 20.2841 6.56617L10.6541 13.7507L6.60938 11.1803V8.10482L10.6327 10.6538L19.0132 4.43848Z" fill="white"/>
<path d="M2.50078 10.9699C2.50078 10.8217 2.50078 10.6968 2.5222 10.5486L0.0839197 10.4219C0.0839197 10.5914 0.0625 10.7807 0.0625 10.9484C0.0625 13.899 1.25129 16.5747 3.16836 18.5132L4.898 16.7639C3.41825 15.2895 2.50078 13.2457 2.50078 10.9699Z" fill="white"/>
<path d="M10.631 2.75216C10.7773 2.75216 10.9023 2.75216 11.0486 2.77358L11.1736 0.308529C11.0058 0.308529 10.8184 0.287109 10.6524 0.287109C7.73394 0.287109 5.08682 1.4884 3.16797 3.42688L4.89761 5.17616C6.35772 3.68035 8.39973 2.75216 10.631 2.75216Z" fill="white"/>
<path d="M10.6325 19.1877C10.4861 19.1877 10.3612 19.1877 10.2148 19.1662L10.0898 21.6313C10.2576 21.6313 10.4451 21.6527 10.6111 21.6527C13.5295 21.6527 16.1784 20.4514 18.0955 18.5129L16.3658 16.7637C14.9057 18.2809 12.8833 19.1877 10.6325 19.1877Z" fill="white"/>
<path d="M15.2184 4.18543L17.2818 2.64678C15.4683 1.17239 13.155 0.265625 10.6328 0.265625V2.73068C12.3428 2.7521 13.9261 3.27866 15.2184 4.18543Z" fill="white"/>
<path d="M21.222 10.9698C21.222 10.3165 21.1595 9.68462 21.0542 9.05273L18.7819 10.7592C18.7819 10.8216 18.7819 10.9073 18.7819 10.9698C18.7819 13.3938 17.7395 15.5643 16.0938 17.0601L17.7395 18.8933C19.8672 16.9548 21.222 14.1096 21.222 10.9698Z" fill="white"/>
<path d="M10.6308 19.1882C8.23357 19.1882 6.08625 18.1351 4.6065 16.4697L2.79297 18.1351C4.73145 20.3056 7.52494 21.6533 10.6308 21.6533V19.1882Z" fill="white"/>
<path d="M5.19073 4.88004L3.5432 3.04688C1.39588 5.00678 0.0625 7.83061 0.0625 10.9704H2.50078C2.50078 8.5678 3.5432 6.37764 5.19073 4.88004Z" fill="white"/>
</svg>
