<svg width="20" height="20" viewBox="0 0 20 20" fill="none" xmlns="http://www.w3.org/2000/svg">
<g filter="url(#filter0_d_385_12515)">
<path d="M14.0041 17.9168C13.3804 17.9168 12.8508 17.6987 12.4154 17.2625C11.9801 16.8262 11.7625 16.2965 11.7625 15.6733C11.7625 15.59 11.7913 15.3875 11.8489 15.0658L5.92268 11.577C5.72184 11.7854 5.48323 11.9486 5.20684 12.0666C4.93045 12.1847 4.63434 12.2437 4.31851 12.2437C3.69754 12.2437 3.16969 12.0247 2.73497 11.5866C2.30025 11.1486 2.08289 10.6197 2.08289 10.0002C2.08289 9.38058 2.30025 8.85176 2.73497 8.4137C3.16969 7.97565 3.69754 7.75662 4.31851 7.75662C4.63434 7.75662 4.93045 7.81565 5.20684 7.9337C5.48323 8.05176 5.72184 8.21495 5.92268 8.42329L11.8489 4.94245C11.8159 4.83995 11.7932 4.73954 11.7808 4.6412C11.7686 4.54287 11.7625 4.43815 11.7625 4.32704C11.7625 3.70384 11.9807 3.17412 12.4173 2.73787C12.8539 2.30162 13.3841 2.0835 14.0079 2.0835C14.6316 2.0835 15.1611 2.30183 15.5964 2.7385C16.0318 3.17502 16.2496 3.70516 16.2496 4.32891C16.2496 4.95266 16.0314 5.48225 15.5952 5.91766C15.1589 6.35294 14.6292 6.57058 14.006 6.57058C13.6886 6.57058 13.3935 6.51023 13.1206 6.38954C12.8475 6.26884 12.6106 6.10433 12.4098 5.896L6.48351 9.38475C6.51657 9.48738 6.53927 9.5878 6.55164 9.686C6.56386 9.78433 6.56997 9.88905 6.56997 10.0002C6.56997 10.1113 6.56386 10.216 6.55164 10.3143C6.53927 10.4125 6.51657 10.5129 6.48351 10.6156L12.4098 14.1043C12.6106 13.896 12.8475 13.7315 13.1206 13.6108C13.3935 13.4901 13.6886 13.4297 14.006 13.4297C14.6292 13.4297 15.1589 13.648 15.5952 14.0845C16.0314 14.5212 16.2496 15.0514 16.2496 15.6752C16.2496 16.2989 16.0312 16.8284 15.5946 17.2637C15.158 17.6991 14.6279 17.9168 14.0041 17.9168Z" fill="white"/>
</g>
<defs>
<filter id="filter0_d_385_12515" x="-9.91711" y="-5.9165" width="38.1666" height="39.8333" filterUnits="userSpaceOnUse" color-interpolation-filters="sRGB">
<feFlood flood-opacity="0" result="BackgroundImageFix"/>
<feColorMatrix in="SourceAlpha" type="matrix" values="0 0 0 0 0 0 0 0 0 0 0 0 0 0 0 0 0 0 127 0" result="hardAlpha"/>
<feOffset dy="4"/>
<feGaussianBlur stdDeviation="6"/>
<feComposite in2="hardAlpha" operator="out"/>
<feColorMatrix type="matrix" values="0 0 0 0 0 0 0 0 0 0 0 0 0 0 0 0 0 0 0.25 0"/>
<feBlend mode="normal" in2="BackgroundImageFix" result="effect1_dropShadow_385_12515"/>
<feBlend mode="normal" in="SourceGraphic" in2="effect1_dropShadow_385_12515" result="shape"/>
</filter>
</defs>
</svg>
