<svg width="21" height="19" viewBox="0 0 21 19" fill="none" xmlns="http://www.w3.org/2000/svg">
<path d="M16.6333 0H4.96667C2.66917 0 0.800003 1.93714 0.800003 4.31818V14.6818C0.800003 17.0629 2.66917 19 4.96667 19H16.6333C18.9308 19 20.8 17.0629 20.8 14.6818V4.31818C20.8 1.93714 18.9308 0 16.6333 0ZM19.1333 5.18182H15.8883L18.4433 2.53391C18.87 2.99855 19.1333 3.62727 19.1333 4.31818V5.18182ZM16.855 1.73764L13.5442 5.16886C13.5442 5.16886 13.5367 5.1775 13.5325 5.18182H10.68L14.0133 1.72727H16.6333C16.7083 1.72727 16.7817 1.73159 16.855 1.73764ZM11.6567 1.72727L8.52 4.978C8.46084 5.03932 8.41167 5.10841 8.37417 5.18182H5.47167L8.805 1.72727H11.6567ZM4.96667 1.72727H6.44834L3.115 5.18182H2.46667V4.31818C2.46667 2.88973 3.58834 1.72727 4.96667 1.72727ZM16.6333 17.2727H4.96667C3.58834 17.2727 2.46667 16.1103 2.46667 14.6818V6.90909H19.1333V14.6818C19.1333 16.1103 18.0117 17.2727 16.6333 17.2727ZM13.3392 12.7818L9.4775 14.9236C8.95917 15.2458 8.3 14.8589 8.3 14.2327V9.94823C8.3 9.32209 8.95917 8.93518 9.4775 9.25732L13.3392 11.3991C13.8425 11.7118 13.8425 12.4683 13.3392 12.781V12.7818Z" fill="#8C9598"/>
</svg>
