<svg width="24" height="24" viewBox="0 0 24 24" fill="none" xmlns="http://www.w3.org/2000/svg">
<path d="M12 2C9.53792 2.00176 7.16344 2.91385 5.33333 4.56083V2.83333C5.33333 2.61232 5.24554 2.40036 5.08926 2.24408C4.93297 2.0878 4.72101 2 4.5 2C4.27899 2 4.06702 2.0878 3.91074 2.24408C3.75446 2.40036 3.66667 2.61232 3.66667 2.83333V5.33333C3.66667 5.99637 3.93006 6.63226 4.3989 7.1011C4.86774 7.56994 5.50362 7.83333 6.16667 7.83333H8.66667C8.88768 7.83333 9.09964 7.74553 9.25592 7.58925C9.4122 7.43297 9.5 7.22101 9.5 7C9.5 6.77899 9.4122 6.56702 9.25592 6.41074C9.09964 6.25446 8.88768 6.16667 8.66667 6.16667H6.16667C6.13856 6.1625 6.11074 6.15666 6.08333 6.14917C7.44127 4.78152 9.23177 3.92756 11.1492 3.73305C13.0667 3.53855 14.9922 4.01555 16.5971 5.08263C18.202 6.14972 19.3868 7.74074 19.9493 9.58412C20.5118 11.4275 20.4171 13.409 19.6813 15.1903C18.9455 16.9716 17.6144 18.4423 15.915 19.3515C14.2156 20.2606 12.2533 20.5517 10.3632 20.1752C8.47303 19.7986 6.77215 18.7778 5.55088 17.2868C4.3296 15.7959 3.66364 13.9273 3.66667 12C3.66667 11.779 3.57887 11.567 3.42259 11.4107C3.26631 11.2545 3.05435 11.1667 2.83333 11.1667C2.61232 11.1667 2.40036 11.2545 2.24408 11.4107C2.0878 11.567 2 11.779 2 12C2 13.9778 2.58649 15.9112 3.6853 17.5557C4.78412 19.2002 6.3459 20.4819 8.17316 21.2388C10.0004 21.9957 12.0111 22.1937 13.9509 21.8078C15.8907 21.422 17.6725 20.4696 19.0711 19.0711C20.4696 17.6725 21.422 15.8907 21.8078 13.9509C22.1937 12.0111 21.9957 10.0004 21.2388 8.17316C20.4819 6.3459 19.2002 4.78412 17.5557 3.6853C15.9112 2.58649 13.9778 2 12 2Z" fill="#8C9598"/>
<path d="M12 7C11.779 7 11.567 7.0878 11.4108 7.24408C11.2545 7.40036 11.1667 7.61232 11.1667 7.83333V12C11.1667 12.221 11.2546 12.4329 11.4108 12.5892L13.9108 15.0892C14.068 15.241 14.2785 15.325 14.497 15.3231C14.7155 15.3212 14.9245 15.2335 15.079 15.079C15.2335 14.9245 15.3212 14.7155 15.3231 14.497C15.325 14.2785 15.241 14.068 15.0892 13.9108L12.8333 11.655V7.83333C12.8333 7.61232 12.7455 7.40036 12.5893 7.24408C12.433 7.0878 12.221 7 12 7Z" fill="#8C9598"/>
</svg>
